<?xml version="1.0" encoding="UTF-8" standalone="yes"?><svg xmlns="http://www.w3.org/2000/svg" xmlns:xlink="http://www.w3.org/1999/xlink" height="906pt" style="width:444px;height:906px;" version="1.1" viewBox="0 0 444 906" width="444pt"><defs/><g><text fill="#000000" font-family="sans-serif" font-size="18" lengthAdjust="spacingAndGlyphs" textLength="145" x="158" y="17.4023">Data Flow States</text><ellipse cx="294" cy="39.1992" fill="#000000" rx="10" ry="10" style="stroke: none; stroke-width: 1.0;"/><rect fill="#FFFFFF" height="49.168" rx="12.5" ry="12.5" style="stroke: #A80036; stroke-width: 1.5;" width="98" x="197" y="89.6992"/><text fill="#000000" font-family="Verdana" font-size="12" lengthAdjust="spacingAndGlyphs" textLength="28" x="232" y="111.7637">send</text><text fill="#000000" font-family="Verdana" font-size="12" lengthAdjust="spacingAndGlyphs" textLength="78" x="207" y="126.3477">DATA_START</text><rect fill="#FEFECE" height="34.584" rx="12.5" ry="12.5" style="stroke: #A80036; stroke-width: 1.5;" width="81" x="172.75" y="186.6992"/><text fill="#000000" font-family="Verdana" font-size="12" lengthAdjust="spacingAndGlyphs" textLength="61" x="182.75" y="208.7637">STARTING</text><rect fill="#FFFFFF" height="49.168" rx="12.5" ry="12.5" style="stroke: #A80036; stroke-width: 1.5;" width="169" x="274.75" y="179.6992"/><text fill="#000000" font-family="Verdana" font-size="12" lengthAdjust="spacingAndGlyphs" textLength="28" x="345.25" y="201.7637">send</text><text fill="#000000" font-family="Verdana" font-size="12" lengthAdjust="spacingAndGlyphs" textLength="149" x="284.75" y="216.3477">DATA_START|DATA_END</text><rect fill="#FEFECE" height="34.584" rx="12.5" ry="12.5" style="stroke: #A80036; stroke-width: 1.5;" width="138" x="276" y="366.6992"/><text fill="#000000" font-family="Verdana" font-size="12" lengthAdjust="spacingAndGlyphs" textLength="118" x="286" y="388.7637">STARTING_ENDING</text><rect fill="#FFFFFF" height="49.168" rx="12.5" ry="12.5" style="stroke: #A80036; stroke-width: 1.5;" width="83" x="93.75" y="269.6992"/><text fill="#000000" font-family="Verdana" font-size="12" lengthAdjust="spacingAndGlyphs" textLength="25" x="122.75" y="291.7637">recv</text><text fill="#000000" font-family="Verdana" font-size="12" lengthAdjust="spacingAndGlyphs" textLength="63" x="103.75" y="306.3477">DATA_YES</text><rect fill="#FEFECE" height="34.584" rx="12.5" ry="12.5" style="stroke: #A80036; stroke-width: 1.5;" width="64" x="94" y="366.6992"/><text fill="#000000" font-family="Verdana" font-size="12" lengthAdjust="spacingAndGlyphs" textLength="44" x="104" y="388.7637">ACTIVE</text><rect fill="#FFFFFF" height="49.168" rx="12.5" ry="12.5" style="stroke: #A80036; stroke-width: 1.5;" width="78" x="178" y="359.6992"/><text fill="#000000" font-family="Verdana" font-size="12" lengthAdjust="spacingAndGlyphs" textLength="25" x="204.5" y="381.7637">recv</text><text fill="#000000" font-family="Verdana" font-size="12" lengthAdjust="spacingAndGlyphs" textLength="58" x="188" y="396.3477">DATA_NO</text><rect fill="#FEFECE" height="34.584" rx="12.5" ry="12.5" style="stroke: #A80036; stroke-width: 1.5;" width="77" x="128.75" y="546.6992"/><text fill="#000000" font-family="Verdana" font-size="12" lengthAdjust="spacingAndGlyphs" textLength="57" x="138.75" y="568.7637">REFUSED</text><rect fill="#FFFFFF" height="49.168" rx="12.5" ry="12.5" style="stroke: #A80036; stroke-width: 1.5;" width="86" x="243" y="269.6992"/><text fill="#000000" font-family="Verdana" font-size="12" lengthAdjust="spacingAndGlyphs" textLength="28" x="272" y="291.7637">send</text><text fill="#000000" font-family="Verdana" font-size="12" lengthAdjust="spacingAndGlyphs" textLength="66" x="253" y="306.3477">DATA_END</text><rect fill="#FFFFFF" height="49.168" rx="12.5" ry="12.5" style="stroke: #A80036; stroke-width: 1.5;" width="86" x="6" y="539.6992"/><text fill="#000000" font-family="Verdana" font-size="12" lengthAdjust="spacingAndGlyphs" textLength="28" x="35" y="561.7637">send</text><text fill="#000000" font-family="Verdana" font-size="12" lengthAdjust="spacingAndGlyphs" textLength="66" x="16" y="576.3477">DATA_END</text><rect fill="#FEFECE" height="34.584" rx="12.5" ry="12.5" style="stroke: #A80036; stroke-width: 1.5;" width="69" x="184.75" y="719.6992"/><text fill="#000000" font-family="Verdana" font-size="12" lengthAdjust="spacingAndGlyphs" textLength="49" x="194.75" y="741.7637">ENDING</text><rect fill="#FFFFFF" height="49.168" rx="12.5" ry="12.5" style="stroke: #A80036; stroke-width: 1.5;" width="131" x="64.75" y="449.6992"/><text fill="#000000" font-family="Verdana" font-size="12" lengthAdjust="spacingAndGlyphs" textLength="73" x="93.75" y="471.7637">send or recv</text><text fill="#000000" font-family="Verdana" font-size="12" lengthAdjust="spacingAndGlyphs" textLength="111" x="74.75" y="486.3477">TRANSFER_ABORT</text><rect fill="#FFFFFF" height="49.168" rx="12.5" ry="12.5" style="stroke: #A80036; stroke-width: 1.5;" width="83" x="230.75" y="629.6992"/><text fill="#000000" font-family="Verdana" font-size="12" lengthAdjust="spacingAndGlyphs" textLength="25" x="259.75" y="651.7637">recv</text><text fill="#000000" font-family="Verdana" font-size="12" lengthAdjust="spacingAndGlyphs" textLength="63" x="240.75" y="666.3477">DATA_YES</text><rect fill="#FFFFFF" height="49.168" rx="12.5" ry="12.5" style="stroke: #A80036; stroke-width: 1.5;" width="78" x="306" y="449.6992"/><text fill="#000000" font-family="Verdana" font-size="12" lengthAdjust="spacingAndGlyphs" textLength="25" x="332.5" y="471.7637">recv</text><text fill="#000000" font-family="Verdana" font-size="12" lengthAdjust="spacingAndGlyphs" textLength="58" x="316" y="486.3477">DATA_NO</text><rect fill="#FFFFFF" height="49.168" rx="12.5" ry="12.5" style="stroke: #A80036; stroke-width: 1.5;" width="86" x="124" y="629.6992"/><text fill="#000000" font-family="Verdana" font-size="12" lengthAdjust="spacingAndGlyphs" textLength="28" x="153" y="651.7637">send</text><text fill="#000000" font-family="Verdana" font-size="12" lengthAdjust="spacingAndGlyphs" textLength="66" x="134" y="666.3477">DATA_END</text><rect fill="#FFFFFF" height="49.168" rx="12.5" ry="12.5" style="stroke: #A80036; stroke-width: 1.5;" width="86" x="176" y="795.6992"/><text fill="#000000" font-family="Verdana" font-size="12" lengthAdjust="spacingAndGlyphs" textLength="25" x="206.5" y="817.7637">recv</text><text fill="#000000" font-family="Verdana" font-size="12" lengthAdjust="spacingAndGlyphs" textLength="66" x="186" y="832.3477">DATA_END</text><ellipse cx="219" cy="895.1992" fill="none" rx="10" ry="10" style="stroke: #000000; stroke-width: 1.0;"/><ellipse cx="219.5" cy="895.6992" fill="#000000" rx="6" ry="6" style="stroke: none; stroke-width: 1.0;"/><path d="M288.863,48.0112 C283.04,56.8682 273.214,71.8112 264.438,85.1572 " fill="none" style="stroke: #A80036; stroke-width: 1.0;"/><polygon fill="#A80036" points="261.51,89.6112,269.7973,84.2896,264.2574,85.4337,263.1133,79.8937,261.51,89.6112" style="stroke: #A80036; stroke-width: 1.0;"/><path d="M237.157,138.7812 C232.168,152.0852 225.979,168.5892 221.114,181.5612 " fill="none" style="stroke: #A80036; stroke-width: 1.0;"/><polygon fill="#A80036" points="219.253,186.5242,226.1587,179.502,221.0088,181.8426,218.6681,176.6927,219.253,186.5242" style="stroke: #A80036; stroke-width: 1.0;"/><path d="M297.495,48.9632 C306.807,72.3152 332.533,136.8292 347.601,174.6142 " fill="none" style="stroke: #A80036; stroke-width: 1.0;"/><polygon fill="#A80036" points="349.564,179.5362,349.9469,169.6948,347.7125,174.8917,342.5156,172.6573,349.564,179.5362" style="stroke: #A80036; stroke-width: 1.0;"/><path d="M357.141,228.8362 C354.416,263.4862 349.373,327.5952 346.726,361.2552 " fill="none" style="stroke: #A80036; stroke-width: 1.0;"/><polygon fill="#A80036" points="346.322,366.3872,351.0143,357.728,346.7135,361.4026,343.0389,357.1017,346.322,366.3872" style="stroke: #A80036; stroke-width: 1.0;"/><path d="M198.329,221.7512 C187.438,234.0392 172.332,251.0812 159.605,265.4402 " fill="none" style="stroke: #A80036; stroke-width: 1.0;"/><polygon fill="#A80036" points="156.084,269.4122,165.0468,265.3296,159.4002,265.6702,159.0596,260.0236,156.084,269.4122" style="stroke: #A80036; stroke-width: 1.0;"/><path d="M132.588,318.7812 C131.24,331.9672 129.57,348.2972 128.248,361.2152 " fill="none" style="stroke: #A80036; stroke-width: 1.0;"/><polygon fill="#A80036" points="127.705,366.5242,132.5996,357.9777,128.2135,361.5501,124.6411,357.1641,127.705,366.5242" style="stroke: #A80036; stroke-width: 1.0;"/><path d="M213.376,221.9452 C214.058,252.3002 215.507,316.7432 216.351,354.3232 " fill="none" style="stroke: #A80036; stroke-width: 1.0;"/><polygon fill="#A80036" points="216.471,359.6652,220.2668,350.5772,216.3581,354.6665,212.2689,350.7578,216.471,359.6652" style="stroke: #A80036; stroke-width: 1.0;"/><path d="M217.429,408.9612 C217.18,432.4632 214.964,469.1662 205,499.1992 C199.89,514.6012 190.65,530.2922 182.56,542.2832 " fill="none" style="stroke: #A80036; stroke-width: 1.0;"/><polygon fill="#A80036" points="179.642,546.5262,188.0393,541.3798,182.4765,542.4073,181.449,536.8445,179.642,546.5262" style="stroke: #A80036; stroke-width: 1.0;"/><path d="M226.731,221.7512 C236.924,234.0392 251.061,251.0812 262.972,265.4402 " fill="none" style="stroke: #A80036; stroke-width: 1.0;"/><polygon fill="#A80036" points="266.268,269.4122,263.6021,259.931,263.0764,265.5634,257.444,265.0376,266.268,269.4122" style="stroke: #A80036; stroke-width: 1.0;"/><path d="M301.811,318.7812 C310.888,332.3212 322.188,349.1742 330.952,362.2462 " fill="none" style="stroke: #A80036; stroke-width: 1.0;"/><polygon fill="#A80036" points="333.82,366.5242,332.1282,356.8218,331.0346,362.3719,325.4845,361.2783,333.82,366.5242" style="stroke: #A80036; stroke-width: 1.0;"/><path d="M97.9967,401.9232 C82.0441,413.1192 63.411,429.4142 54,449.1992 C41.2628,475.9772 41.7108,510.4132 44.28,534.3982 " fill="none" style="stroke: #A80036; stroke-width: 1.0;"/><polygon fill="#A80036" points="44.8945,539.6532,47.8208,530.2491,44.3131,534.6871,39.8751,531.1794,44.8945,539.6532" style="stroke: #A80036; stroke-width: 1.0;"/><path d="M57.9978,589.1152 C68.3715,614.1032 87.4685,653.2152 114,679.1992 C132.737,697.5492 158.578,711.6772 179.936,721.2782 " fill="none" style="stroke: #A80036; stroke-width: 1.0;"/><polygon fill="#A80036" points="184.7,723.3782,178.0791,716.0869,180.1251,721.3608,174.8512,723.4068,184.7,723.3782" style="stroke: #A80036; stroke-width: 1.0;"/><path d="M126.752,401.7512 C127.297,413.7242 128.046,430.2102 128.688,444.3302 " fill="none" style="stroke: #A80036; stroke-width: 1.0;"/><polygon fill="#A80036" points="128.919,449.4122,132.5061,440.2398,128.6919,444.4174,124.5143,440.6032,128.919,449.4122" style="stroke: #A80036; stroke-width: 1.0;"/><path d="M139.915,498.7812 C145.558,512.2032 152.571,528.8812 158.047,541.9042 " fill="none" style="stroke: #A80036; stroke-width: 1.0;"/><polygon fill="#A80036" points="159.989,546.5242,160.189,536.6774,158.0515,541.9149,152.8141,539.7774,159.989,546.5242" style="stroke: #A80036; stroke-width: 1.0;"/><path d="M328.231,401.7892 C317.128,413.8542 303.31,431.1742 296,449.1992 C272.144,508.0252 269.86,583.6772 270.683,624.3132 " fill="none" style="stroke: #A80036; stroke-width: 1.0;"/><polygon fill="#A80036" points="270.811,629.5702,274.5886,620.4746,270.6881,624.5717,266.591,620.6712,270.811,629.5702" style="stroke: #A80036; stroke-width: 1.0;"/><path d="M256.385,679.0642 C248.837,690.5992 239.863,704.3132 232.6,715.4142 " fill="none" style="stroke: #A80036; stroke-width: 1.0;"/><polygon fill="#A80036" points="229.805,719.6852,238.0814,714.3465,232.5438,715.502,231.3883,709.9645,229.805,719.6852" style="stroke: #A80036; stroke-width: 1.0;"/><path d="M345,401.7512 C345,413.7242 345,430.2102 345,444.3302 " fill="none" style="stroke: #A80036; stroke-width: 1.0;"/><polygon fill="#A80036" points="345,449.4122,349,440.4122,345,444.4122,341,440.4122,345,449.4122" style="stroke: #A80036; stroke-width: 1.0;"/><path d="M349.036,498.9422 C354.612,539.5872 360.172,623.4932 323,679.1992 C307.956,701.7442 280.885,716.1752 258.134,724.8752 " fill="none" style="stroke: #A80036; stroke-width: 1.0;"/><polygon fill="#A80036" points="253.35,726.6452,263.1789,727.2718,258.039,724.9093,260.4015,719.7694,253.35,726.6452" style="stroke: #A80036; stroke-width: 1.0;"/><path d="M167,581.7512 C167,593.7242 167,610.2102 167,624.3302 " fill="none" style="stroke: #A80036; stroke-width: 1.0;"/><polygon fill="#A80036" points="167,629.4122,171,620.4122,167,624.4122,163,620.4122,167,629.4122" style="stroke: #A80036; stroke-width: 1.0;"/><path d="M182.32,679.0642 C189.726,690.5992 198.53,704.3132 205.657,715.4142 " fill="none" style="stroke: #A80036; stroke-width: 1.0;"/><polygon fill="#A80036" points="208.399,719.6852,206.9021,709.9508,205.6975,715.4779,200.1703,714.2733,208.399,719.6852" style="stroke: #A80036; stroke-width: 1.0;"/><path d="M219,754.9822 C219,765.2812 219,778.7392 219,790.6732 " fill="none" style="stroke: #A80036; stroke-width: 1.0;"/><polygon fill="#A80036" points="219,795.6802,223,786.6802,219,790.6802,215,786.6802,219,795.6802" style="stroke: #A80036; stroke-width: 1.0;"/><path d="M219,845.1021 C219,856.6099 219,870.0218 219,879.9172 " fill="none" style="stroke: #A80036; stroke-width: 1.0;"/><polygon fill="#A80036" points="219,885.0184,223,876.0184,219,880.0184,215,876.0184,219,885.0184" style="stroke: #A80036; stroke-width: 1.0;"/></g></svg>